<svg width="28" height="22" viewBox="0 0 28 22" fill="none" xmlns="http://www.w3.org/2000/svg">
<path id="Vector" d="M25.2 11.6602V4.4375C25.2 4.0894 25.0525 3.75556 24.7899 3.50942C24.5274 3.26328 24.1713 3.125 23.8 3.125H4.2C3.8287 3.125 3.4726 3.26328 3.21005 3.50942C2.9475 3.75556 2.8 4.0894 2.8 4.4375V17.5625C2.8 17.9106 2.9475 18.2444 3.21005 18.4906C3.4726 18.7367 3.8287 18.875 4.2 18.875H9.1056L15.2516 9.26488C15.5796 8.75225 16.0278 8.31637 16.5622 7.99029C17.0967 7.66421 17.7033 7.45648 18.336 7.38287C18.9688 7.30925 19.6112 7.37167 20.2144 7.5654C20.8176 7.75913 21.3659 8.07909 21.8176 8.501L25.2 11.6602ZM25.2 15.3654L19.8408 10.3595C19.6901 10.219 19.5073 10.1125 19.3062 10.0481C19.1052 9.98366 18.8911 9.96299 18.6802 9.98766C18.4693 10.0123 18.2672 10.0817 18.0892 10.1904C17.9111 10.2992 17.7618 10.4445 17.6526 10.6154L12.3704 18.875H23.8C24.1713 18.875 24.5274 18.7367 24.7899 18.4906C25.0525 18.2444 25.2 17.9106 25.2 17.5625V15.3654ZM4.2 0.5H23.8C24.9139 0.5 25.9822 0.914843 26.7698 1.65327C27.5575 2.39169 28 3.39321 28 4.4375V17.5625C28 18.6068 27.5575 19.6083 26.7698 20.3467C25.9822 21.0852 24.9139 21.5 23.8 21.5H4.2C3.08609 21.5 2.0178 21.0852 1.23015 20.3467C0.442499 19.6083 0 18.6068 0 17.5625L0 4.4375C0 3.39321 0.442499 2.39169 1.23015 1.65327C2.0178 0.914843 3.08609 0.5 4.2 0.5ZM8.4 12.3125C7.28609 12.3125 6.2178 11.8977 5.43015 11.1592C4.6425 10.4208 4.2 9.41929 4.2 8.375C4.2 7.33071 4.6425 6.32919 5.43015 5.59077C6.2178 4.85234 7.28609 4.4375 8.4 4.4375C9.51391 4.4375 10.5822 4.85234 11.3698 5.59077C12.1575 6.32919 12.6 7.33071 12.6 8.375C12.6 9.41929 12.1575 10.4208 11.3698 11.1592C10.5822 11.8977 9.51391 12.3125 8.4 12.3125ZM8.4 9.6875C8.7713 9.6875 9.1274 9.54922 9.38995 9.30308C9.6525 9.05694 9.8 8.7231 9.8 8.375C9.8 8.0269 9.6525 7.69306 9.38995 7.44692C9.1274 7.20078 8.7713 7.0625 8.4 7.0625C8.0287 7.0625 7.6726 7.20078 7.41005 7.44692C7.1475 7.69306 7 8.0269 7 8.375C7 8.7231 7.1475 9.05694 7.41005 9.30308C7.6726 9.54922 8.0287 9.6875 8.4 9.6875Z" fill="#4A5E6D"/>
</svg>
