<svg width="19" height="20" viewBox="0 0 19 20" fill="none" xmlns="http://www.w3.org/2000/svg">
<path d="M4 4H4.11C4.51245 3.98972 4.90242 3.85822 5.22892 3.62271C5.55543 3.3872 5.80325 3.05864 5.94 2.68L5.974 2.577L6.071 2.286C6.154 2.037 6.196 1.913 6.251 1.807C6.35921 1.59939 6.51451 1.41999 6.70448 1.28316C6.89444 1.14633 7.1138 1.05586 7.345 1.019C7.462 1 7.593 1 7.855 1H11.145C11.407 1 11.538 1 11.655 1.019C11.8862 1.05586 12.1056 1.14633 12.2955 1.28316C12.4855 1.41999 12.6408 1.59939 12.749 1.807C12.804 1.913 12.846 2.037 12.929 2.286L13.026 2.577C13.1527 2.99827 13.4148 3.36601 13.7717 3.62326C14.1285 3.88051 14.5603 4.01293 15 4" stroke="#4A5E6D" stroke-width="1.5"/>
<path d="M18 4H1M16.333 6.5L15.873 13.4C15.696 16.054 15.608 17.381 14.743 18.19C13.878 18.999 12.547 19 9.887 19H9.113C6.453 19 5.122 19 4.257 18.19C3.392 17.381 3.303 16.054 3.127 13.4L2.667 6.5" stroke="#4A5E6D" stroke-width="1.5" stroke-linecap="round"/>
</svg>
