<svg width="115" height="115" viewBox="0 0 115 115" fill="none" xmlns="http://www.w3.org/2000/svg">
<g id="warning/icon">
<path id="Vector" d="M57.5 78.8804C58.3369 78.8804 59.0381 78.5977 59.6035 78.0323C60.1658 77.4669 60.4469 76.7657 60.4469 75.9287C60.4469 75.095 60.1642 74.3954 59.5987 73.83C59.0333 73.2646 58.3338 72.9803 57.5 72.9771C56.6662 72.9739 55.9667 73.2566 55.4012 73.8252C54.8358 74.3938 54.5531 75.0934 54.5531 75.924C54.5531 76.7545 54.8358 77.4557 55.4012 78.0275C55.9667 78.5993 56.6662 78.8868 57.5 78.8804ZM55.1042 63.0248H59.8958V34.2748H55.1042V63.0248ZM57.5144 100.625C51.5535 100.625 45.9473 99.4942 40.6956 97.2325C35.4472 94.9676 30.8807 91.8946 26.9962 88.0133C23.1118 84.1321 20.0372 79.5704 17.7723 74.3283C15.5074 69.0862 14.375 63.4816 14.375 57.5144C14.375 51.5472 15.5074 45.9409 17.7723 40.6956C20.034 35.4472 23.1022 30.8807 26.9771 26.9962C30.8519 23.1118 35.4152 20.0372 40.6669 17.7723C45.9185 15.5074 51.5248 14.375 57.4856 14.375C63.4465 14.375 69.0527 15.5074 74.3044 17.7723C79.5528 20.034 84.1193 23.1038 88.0037 26.9819C91.8882 30.8599 94.9628 35.4232 97.2277 40.6717C99.4926 45.9201 100.625 51.5248 100.625 57.4856C100.625 63.4465 99.4942 69.0527 97.2325 74.3044C94.9708 79.556 91.8978 84.1225 88.0133 88.0037C84.1289 91.885 79.5672 94.9596 74.3283 97.2277C69.0894 99.4958 63.4848 100.628 57.5144 100.625Z" fill="#C03744"/>
</g>
</svg>
